<svg width="330" height="330" viewBox="0 0 330 330" fill="none" xmlns="http://www.w3.org/2000/svg">
<g clip-path="url(#clip0_1_3)">
<path d="M165 330C256.127 330 330 256.127 330 165C330 73.873 256.127 0 165 0C73.873 0 0 73.873 0 165C0 256.127 73.873 330 165 330Z" fill="#0EA5E9"/>
<path d="M294.057 267.805C280.83 284.393 264.472 298.374 245.871 308.854C233.802 315.655 220.797 320.976 207.099 324.579H200.202C186.45 324.579 172.914 321.265 160.724 314.915L88.7094 277.362L72.8494 268.641L55.5612 259.131L142.775 255.091C152.628 255.091 150.184 230.927 150.184 221.081L197.333 139.308L255.911 197.886C263.912 205.886 270.169 215.322 274.418 225.586C278.668 235.849 280.917 246.942 280.917 258.262L294.057 267.805Z" fill="#FFDC8D"/>
<path d="M245.87 308.853C233.801 315.655 220.796 320.975 207.098 324.578H200.202C186.449 324.578 172.913 321.265 160.723 314.914L88.7088 277.361L72.8488 268.64L173.835 276.257C173.835 276.257 193.373 308.853 245.856 308.853C245.864 308.853 245.864 308.853 245.87 308.853Z" fill="#F2CE86"/>
<path d="M55.8983 106.389H46.0376C45.5497 106.359 45.0624 106.335 44.5822 106.335C39.4112 106.335 34.2485 108.309 30.3007 112.257C22.4129 120.144 22.4129 132.931 30.3007 140.819L41.4163 151.942C37.0664 152.454 32.855 154.373 29.5189 157.709C21.6311 165.597 21.6311 178.392 29.5189 186.28L35.3551 192.116C37.0431 193.804 38.9548 195.135 41.0064 196.095C41.1404 196 41.2803 195.918 41.4163 195.828V196.272C41.2803 196.211 41.1411 196.159 41.0064 196.095C40.0228 196.76 39.0863 197.535 38.2123 198.409C30.3246 206.304 30.3246 219.092 38.2123 226.98L44.0486 232.817C44.6834 233.444 45.3492 234.023 46.0382 234.551V219.059H55.8983V106.389V106.389Z" fill="#F2CE86"/>
<path d="M179.505 0.000640869H63.8763C54.0233 0.000640869 46.035 7.97929 46.035 17.8329V258.432C46.035 268.276 54.024 276.255 63.8763 276.255H173.836C164.273 264.409 161.662 248.824 165.985 234.922L190.195 166.523L197.337 173.665V17.8329C197.336 7.97929 189.357 0.000640869 179.505 0.000640869Z" fill="#5C5E70"/>
<path d="M137.96 145.901C133.589 150.265 131.407 155.976 131.407 161.7C131.407 167.425 133.589 173.142 137.96 177.513L163.7 203.253C170.462 210.015 172.442 220.325 168.326 228.946C167.397 230.885 166.616 232.892 165.983 234.919H53.1841V36.4682H190.201V166.529L169.573 145.901C160.845 137.165 146.688 137.165 137.96 145.901Z" fill="#F9EED7"/>
<path d="M135.805 256.134C135.805 261.374 132.956 265.946 128.714 268.371C129.905 266.304 130.586 263.913 130.586 261.354C130.586 253.555 124.269 247.231 116.47 247.231C113.911 247.231 111.514 247.911 109.446 249.11C111.871 244.867 116.45 242.012 121.689 242.012C129.488 242.011 135.805 248.335 135.805 256.134Z" fill="#494B5B"/>
<path d="M223.993 189.62L206.307 171.934V148.282L197.336 139.31V173.662L218.643 194.969C221.027 197.352 225.101 195.665 225.101 192.295C225.101 191.292 224.702 190.329 223.993 189.62Z" fill="#F2CE86"/>
<path d="M168.078 176.223V167.498H176.803V176.223H168.078ZM135.19 160.784V152.059H143.915V160.784V169.51H135.19V160.784ZM159.353 160.784V152.059H168.079V160.784H159.353ZM155.903 139.451V141.39H147.178V140.338C143.804 141.375 140.627 143.228 137.957 145.898C136.83 147.025 135.848 148.242 135.013 149.525V151.884H133.674C132.164 154.971 131.409 158.335 131.409 161.705C131.409 167.425 133.592 173.146 137.957 177.512L163.703 203.256C170.46 210.013 172.442 220.325 168.324 228.948C167.394 230.891 166.613 232.896 165.986 234.923H146.232V234.924H165.984C161.663 248.826 164.274 264.411 173.835 276.257H177.624C188.46 276.257 197.254 267.513 197.335 256.697V173.664L190.193 166.525L176.802 153.132V160.786H168.077V152.061H175.731L169.568 145.899C165.752 142.076 160.892 139.926 155.903 139.451ZM190.195 36.4656H115.929V36.4676H190.195V36.4656Z" fill="white"/>
<path d="M91.4474 82.1429H82.7224V90.8686H91.4474V82.1429Z" fill="#5C5E70"/>
<path d="M91.4474 151.349H82.7224V160.074H91.4474V151.349Z" fill="#5C5E70"/>
<path d="M135.778 65.9903V107.016H176.803V65.9903H135.778ZM166.74 96.953H145.841V76.0534H166.74V96.953Z" fill="#5C5E70"/>
<path d="M160.654 82.1429H151.928V90.868H160.654V82.1429Z" fill="#5C5E70"/>
<path d="M126.049 134.194V125.47H117.325V134.194V142.919H126.049V143.158V151.883H134.775V143.158V134.432H126.049V134.194Z" fill="#5C5E70"/>
<path d="M159.353 114.369V123.094H168.078H176.803V114.369H168.078H159.353Z" fill="#5C5E70"/>
<path d="M126.286 152.056H117.561V160.781H126.286V152.056Z" fill="#5C5E70"/>
<path d="M117.323 116.746H108.597V125.472H117.323V116.746Z" fill="#5C5E70"/>
<path d="M176.622 133.212H167.896V141.938H176.622V133.212Z" fill="#5C5E70"/>
<path d="M147.179 115.214H138.453H129.729V123.939H138.453V132.665H147.179V141.39H155.903V132.665V123.939H147.179V115.214Z" fill="#5C5E70"/>
<path d="M86.6966 116.744V125.47H95.4216V116.744V107.015H107.596V65.9903H66.5711V107.016H86.6973V116.744H86.6966ZM76.6336 76.0528H97.5331V96.9523H76.6336V76.0528V76.0528Z" fill="#5C5E70"/>
<path d="M75.2961 116.744H66.5704V135.198V138.916V176.223H107.595V135.198H75.2954V116.744H75.2961ZM76.6335 145.26H97.533V166.16H76.6335V145.26V145.26Z" fill="#5C5E70"/>
<path d="M126.049 99.5904V90.8654V82.1404H117.325V90.8654V99.5904V108.315H126.049V99.5904Z" fill="#5C5E70"/>
<path d="M190.199 166.526L169.571 145.897C160.847 137.167 146.69 137.167 137.958 145.897C133.593 150.263 131.409 155.976 131.409 161.704C131.409 167.424 133.592 173.144 137.958 177.51L163.703 203.256C170.461 210.013 172.442 220.323 168.324 228.947C167.396 230.89 166.614 232.894 165.987 234.922C161.66 248.825 164.276 264.406 173.836 276.257L182.509 285.734C192.363 285.734 208.775 273.355 208.775 263.509L197.336 173.663L190.199 166.526Z" fill="#FFDC8D"/>
<path d="M164.539 152.644C159.273 147.378 150.735 147.378 145.469 152.644C140.204 157.91 140.204 166.447 145.469 171.713C150.735 176.979 155.282 172.988 160.548 167.722C165.813 162.457 169.804 157.91 164.539 152.644Z" fill="#F9EED7"/>
<path d="M159.39 160.466C161.126 160.466 162.533 159.058 162.533 157.322C162.533 155.586 161.126 154.179 159.39 154.179C157.654 154.179 156.247 155.586 156.247 157.322C156.247 159.058 157.654 160.466 159.39 160.466Z" fill="#FCF8F2"/>
</g>
<defs>
<clipPath id="clip0_1_3">
<rect width="330" height="330" fill="white"/>
</clipPath>
</defs>
</svg>
